<?xml version="1.0" encoding="UTF-8"?>
<svg id="Capa_2" data-name="Capa 2" xmlns="http://www.w3.org/2000/svg" viewBox="0 0 304.64 214.94">
  <defs>
    <style>
      .cls-1 {
        fill: #ededed;
      }
    </style>
  </defs>
  <g id="Capa_1-2" data-name="Capa 1">
    <path class="cls-1" d="M58.23,3.36v27.16c2.22,3.21,3.52,7.11,3.52,11.3v109.42h21.88V41.82c0-17.24-10.48-32.07-25.41-38.46Z"/>
    <polygon class="cls-1" points="232.92 36.35 232.92 30.88 211.04 30.88 211.04 36.35 211.04 47.29 232.92 47.29 232.92 36.35"/>
    <path class="cls-1" d="M21.88,63.7v-21.88c0-10.99,8.94-19.94,19.93-19.94V0C18.76,0,0,18.76,0,41.82v142.24h21.88v-27.35h0v-5.47h0v-71.12h19.94v-16.41h-19.94Z"/>
    <polygon class="cls-1" points="294.68 47.29 294.68 36.35 294.68 30.88 272.79 30.88 272.79 36.35 272.79 47.29 252.86 47.29 252.86 58.23 252.86 63.7 272.79 63.7 272.79 85.59 272.79 107.47 272.79 129.35 272.79 151.23 294.68 151.23 294.68 129.35 294.68 107.47 294.68 85.59 294.68 63.7 304.64 63.7 304.64 58.23 304.64 47.29 294.68 47.29"/>
    <path class="cls-1" d="M272.79,167.65v5.47c0,10.99-8.94,19.94-19.94,19.94s-19.94-8.94-19.94-19.94v-5.47h0s-21.88,0-21.88,0h0v5.47c0,23.06,18.76,41.82,41.82,41.82s41.82-18.76,41.82-41.82v-5.47h0s-21.88,0-21.88,0h0Z"/>
    <polygon class="cls-1" points="232.92 129.35 232.92 107.47 232.92 85.59 232.92 63.7 211.04 63.7 211.04 85.59 211.04 107.47 211.04 129.35 211.04 151.23 232.92 151.23 232.92 129.35"/>
    <path class="cls-1" d="M167.27,63.7v45.71c0,10.99-8.94,19.94-19.94,19.94s-19.94-8.94-19.94-19.94v-45.71h-21.88v45.71c0,23.06,18.76,41.82,41.82,41.82s41.82-18.76,41.82-41.82v-45.71h-21.88Z"/>
  </g>
</svg>