<svg width="174" height="39" viewBox="0 0 174 39" fill="none" xmlns="http://www.w3.org/2000/svg">
<path d="M123.451 25.1814C123.451 29.9903 120.599 32.1222 116.783 32.1222C112.941 32.1222 110.091 29.9903 110.091 25.1814V11.8716H106.026V25.5549C106.026 32.6686 111.107 35.9153 116.783 35.9153C122.41 35.9153 127.516 32.6686 127.516 25.5549V11.8716H123.451V25.1814Z" fill="#222230"/>
<path d="M83.6943 32.1222C81.1412 32.1222 79.2579 30.5849 79.2579 27.0404V15.5643H89.147V11.8711H79.2579V4.48535H75.1934V11.8711H70.1608V15.5643H75.1934V27.115C75.1934 33.1136 78.2421 35.9148 83.3478 35.9148C86.2474 35.9148 88.6015 34.8975 90.4118 33.584L88.5021 30.5352C87.1642 31.4525 85.4305 32.1222 83.6943 32.1222Z" fill="#222230"/>
<path d="M96.6333 0.693359C95.0224 0.693359 93.7823 1.95719 93.7823 3.59346C93.7823 5.20385 95.0224 6.42003 96.6333 6.42003C98.2442 6.42003 99.5334 5.20385 99.5334 3.59346C99.5329 1.95771 98.2442 0.693359 96.6333 0.693359Z" fill="#222230"/>
<path d="M138.893 22.2077C138.893 17.82 142.066 15.2172 145.857 15.2172C149.947 15.2172 152.327 17.7709 152.327 22.1099V35.4191H156.392V22.2077C156.392 17.921 159.441 15.2172 163.332 15.2172C167.421 15.2172 169.802 17.7709 169.802 22.1099V35.4191H173.866V20.7947C173.866 15.1447 169.875 11.3765 164.051 11.3765C160.853 11.3765 157.21 12.5414 155.277 16.1112C153.714 13.1609 150.566 11.3765 146.577 11.3765C143.85 11.3765 140.802 12.2938 138.869 14.9463V11.8716H134.853V35.4191H138.893V22.2077Z" fill="#222230"/>
<rect x="94.6514" y="11.8716" width="4.03966" height="23.5475" fill="#222230"/>
<path d="M61.5114 15.0442C59.653 12.8143 56.902 11.3765 53.2089 11.3765C46.5908 11.3765 41.4354 16.5328 41.4354 23.6462C41.4354 30.7595 46.5908 35.9158 53.2089 35.9158C56.902 35.9158 59.653 34.4779 61.5114 32.2719V35.4196H65.577V11.8721H61.5114V15.0442ZM53.6797 32.1227C48.846 32.1227 45.5756 28.3302 45.5756 23.6462C45.5756 18.9606 48.772 15.1944 53.6797 15.1944C58.4383 15.1944 61.7606 18.8373 61.7606 23.6462C61.7601 28.4794 58.4378 32.1227 53.6797 32.1227Z" fill="#222230"/>
<path d="M35.5304 13.1918C32.8204 3.58439 22.7997 -2.02886 13.1914 0.682199C3.58356 3.39171 -2.02815 13.4145 0.681872 23.0213C3.39243 32.6297 13.4136 38.2402 23.0225 35.5307C32.6293 32.8208 38.241 22.799 35.5304 13.1918ZM21.8969 31.5445C14.4868 33.635 6.75768 29.3074 4.66716 21.8973C2.57715 14.4867 6.90529 6.75748 14.3154 4.66747C21.726 2.57797 29.4541 6.90561 31.5452 14.3162C33.6342 21.7258 29.3065 29.455 21.8969 31.5445Z" fill="#222230"/>
<path d="M30.3311 35.555L32.7101 38.9446C34.9068 37.4026 36.8238 35.5369 38.4094 33.4313L35.1037 30.9399C33.7766 32.7026 32.1709 34.2643 30.3311 35.555Z" fill="#222230"/>
</svg>
